<svg width="1280" height="898" viewBox="0 0 1280 898" fill="none" xmlns="http://www.w3.org/2000/svg">
<path d="M-13 12.0001C-13 -22.2416 14.7583 -50 49 -50H1263C1297.24 -50 1325 -22.2417 1325 12V740.866C1325 787.243 1275.95 817.202 1234.69 796.024L1183.39 769.692C1159.9 757.638 1131.36 761.775 1112.27 780.003L1023 865.208C1003.11 884.195 973.091 887.812 949.26 874.092L693.235 726.697C674.634 715.989 651.818 715.662 632.919 725.834L326.857 890.552C303.115 903.33 273.837 899.299 254.431 880.58L174.447 803.429C156.505 786.123 129.943 781.245 107.023 791.048L73.381 805.437C32.4743 822.932 -13 792.923 -13 748.432V12.0001Z" fill="#D9D9D9"/>
</svg>
